Coordinates
version=1
nRows=10
nColumns=63
inDegrees=yes

Units are S.I. units (second, meters, Newtons, ...)
If the header above contains a line with 'inDegrees', this indicates whether rotational values are in degrees (yes) or radians (no).

endheader
time	pelvis_tilt	pelvis_list	pelvis_rotation	pelvis_tx	pelvis_ty	pelvis_tz	hip_flexion_r	hip_adduction_r	hip_rotation_r	knee_angle_r	knee_angle_r_beta	ankle_angle_r	subtalar_angle_r	mtp_angle_r	hip_flexion_l	hip_adduction_l	hip_rotation_l	knee_angle_l	knee_angle_l_beta	ankle_angle_l	subtalar_angle_l	mtp_angle_l	L5_S1_Flex_Ext	L5_S1_Lat_Bending	L5_S1_axial_rotation	L4_L5_Flex_Ext	L4_L5_Lat_Bending	L4_L5_axial_rotation	L3_L4_Flex_Ext	L3_L4_Lat_Bending	L3_L4_axial_rotation	L2_L3_Flex_Ext	L2_L3_Lat_Bending	L2_L3_axial_rotation	L1_L2_Flex_Ext	L1_L2_Lat_Bending	L1_L2_axial_rotation	L1_T12_Flex_Ext	L1_T12_Lat_Bending	L1_T12_axial_rotation	Abs_r3	Abs_r2	Abs_r1	Abs_t1	Abs_t2	neck_flexion	neck_bending	neck_rotation	arm_flex_r	arm_add_r	arm_rot_r	elbow_flex_r	pro_sup_r	wrist_flex_r	wrist_dev_r	arm_flex_l	arm_add_l	arm_rot_l	elbow_flex_l	pro_sup_l	wrist_flex_l	wrist_dev_l
      0.00000000	      6.25337557	     -3.25925703	    101.95733352	      0.26685786	      0.85629729	      0.52084323	     -3.92696475	      6.69543954	     -1.86407002	      1.20695909	      0.02106541	     17.51685034	    -15.65631752	      0.00000000	     -2.09277922	     -7.85235167	      3.85412214	      3.40011995	      0.05934329	     25.31461024	      6.71854374	      0.00000000	      0.32952718	      0.74298420	     -1.52597262	      0.61196493	      0.98816899	     -1.62134591	      0.54138021	      1.80649179	     -1.62134591	      0.37661662	      1.80649179	     -1.33522604	      0.30599894	      1.51509338	     -1.23985275	      0.18829183	      1.15088253	     -1.14447947	      2.35377971	      8.40478588	     -8.48700192	      0.00000000	      0.00000000	     28.31545283	     -4.73205962	      3.67748697	     13.43135387	    -27.52695826	     47.40966729	     98.15826515	     82.90103154	      1.13165554	      8.42758817	     24.51642358	    -30.68987136	     59.68541531	     92.94670807	     66.90660271	     23.12140747	     -4.04685437
      0.02000000	      5.72600457	     -3.43871322	    100.95576566	      0.26843279	      0.85575440	      0.52257874	     -3.97895871	      6.02269154	      0.32876204	      1.15036879	      0.02007772	     17.70672346	    -15.68250604	      0.00000000	     -1.73226223	     -7.14110928	      1.20600426	      3.79846589	      0.06629574	     26.59482834	      7.43011131	      0.00000000	      0.29178510	      0.66837486	     -1.16255133	      0.54187410	      0.88893856	     -1.23521079	      0.47937373	      1.62508663	     -1.23521079	      0.33348119	      1.62508663	     -1.01723241	      0.27095164	      1.36295001	     -0.94457295	      0.16672600	      1.03531265	     -0.87191350	      2.08419176	      7.56079005	     -6.46576172	      0.00000000	      0.00000000	     28.26963097	     -5.73884753	      2.02568308	     12.58051726	    -27.10781603	     45.42413223	     98.44252963	     79.96839192	      2.90778047	      9.46565939	     26.06682065	    -31.15235991	     61.16121523	     93.65011052	     65.56344600	     17.08448644	     -4.65277937
      0.04000000	      5.33453252	     -3.59982036	    100.10064412	      0.26980786	      0.85525739	      0.52398386	     -3.97519117	      5.51001137	      1.81183587	      1.12096573	      0.01956454	     18.00869212	    -15.28938111	      0.00000000	     -1.39614158	     -6.66062755	     -1.73019777	      4.24365317	      0.07406572	     27.66223279	      9.18387692	      0.00000000	      0.26808341	      0.61198122	     -0.88419203	      0.49785770	      0.81393502	     -0.93945403	      0.44043424	      1.48797113	     -0.93945403	      0.30639253	      1.48797113	     -0.77366803	      0.24894226	      1.24795210	     -0.71840602	      0.15318286	      0.94795890	     -0.66314402	      1.91489300	      6.92285392	     -4.91761081	      0.00000000	      0.00000000	     28.23508361	     -6.31534216	      0.88153536	     12.12638470	    -26.79790769	     44.15423761	     98.51684397	     79.15139086	      4.09367514	      9.63186801	     27.26709493	    -31.35261709	     62.04020651	     93.96776489	     66.38188964	     13.03857432	     -5.59165854
      0.06000000	      5.06741695	     -3.67056304	     99.79517242	      0.27052556	      0.85477499	      0.52509132	     -4.01260361	      5.19464062	      1.80674733	      1.12227304	      0.01958736	     18.68535779	    -13.95455564	      0.00000000	     -1.09296500	     -6.35700486	     -3.36467970	      4.70480881	      0.08211440	     28.36781926	     10.12734113	      0.00000000	      0.24845966	      0.57157148	     -0.75142261	      0.46141443	      0.76019007	     -0.79838652	      0.40819437	      1.38971890	     -0.79838652	      0.28396454	      1.38971890	     -0.65749478	      0.23071964	      1.16554857	     -0.61053087	      0.14196985	      0.88536423	     -0.56356696	      1.77472250	      6.46573093	     -4.17918712	      0.00000000	      0.00000000	     28.21318685	     -6.62363681	      0.15324797	     11.94875162	    -26.57979254	     43.29364041	     98.51340164	     80.48474563	      5.02890245	      9.37972318	     28.28152727	    -31.47121604	     62.63167444	     94.10244073	     68.16484715	     10.51640737	     -6.23990235
      0.08000000	      4.82764901	     -3.79384252	     99.10007860	      0.27157841	      0.85430414	      0.52563007	     -4.03532469	      4.87936485	      3.51025865	      1.03624557	      0.01808590	     18.44126158	    -14.82811306	      0.00000000	     -0.97511203	     -6.08917087	     -5.08341409	      4.98048635	      0.08692589	     28.91288177	     11.17620568	      0.00000000	      0.24827557	      0.54141472	     -0.59775754	      0.46107257	      0.72008158	     -0.63511739	      0.40789194	      1.31639576	     -0.63511739	      0.28375415	      1.31639576	     -0.52303785	      0.23054870	      1.10405290	     -0.48567800	      0.14186466	      0.83865141	     -0.44831815	      1.77340760	      6.12459163	     -3.32454811	      0.00000000	      0.00000000	     28.21195189	     -6.70017481	     -0.08895864	     12.17957971	    -26.53049262	     43.31909427	     98.47418026	     81.59379451	      5.16724491	      9.22489599	     28.95218843	    -31.62172388	     63.04083276	     94.20420293	     69.07089624	      9.07343575	     -6.41122490
      0.10000000	      4.67323697	     -3.85910997	     99.03931773	      0.27190290	      0.85388761	      0.52608437	     -4.06589082	      4.71516722	      3.41468799	      1.01763200	      0.01776103	     18.70979900	    -14.29003393	      0.00000000	     -0.80529853	     -5.92332641	     -5.66711971	      5.27916830	      0.09213887	     29.20981532	     11.58601890	      0.00000000	      0.25012389	      0.52078991	     -0.58812149	      0.46450507	      0.69265058	     -0.62487909	      0.41092854	      1.26624859	     -0.62487909	      0.28586659	      1.26624859	     -0.51460631	      0.23226504	      1.06199479	     -0.47784871	      0.14292079	      0.80670357	     -0.44109112	      1.78660992	      5.89127964	     -3.27095531	      0.00000000	      0.00000000	     28.21923771	     -6.63928592	     -0.08400706	     12.61903502	    -26.54869400	     43.63648020	     98.32612996	     83.94482094	      5.24821208	      8.52897630	     29.39373140	    -31.72576144	     63.13837411	     94.09910409	     70.36768809	      9.18989141	     -6.65840152
      0.12000000	      4.58878279	     -3.91204482	     99.12719934	      0.27203712	      0.85352854	      0.52632294	     -4.09319917	      4.63810883	      2.56204922	      1.04146124	      0.01817693	     19.06823076	    -13.16500687	      0.00000000	     -0.64639950	     -5.82921553	     -5.75761674	      5.54739603	      0.09682033	     29.28603305	     11.63933325	      0.00000000	      0.25599337	      0.51121798	     -0.63602304	      0.47540529	      0.67991992	     -0.67577448	      0.42057151	      1.24297541	     -0.67577448	      0.29257482	      1.24297541	     -0.55652016	      0.23771544	      1.04247571	     -0.51676872	      0.14627461	      0.79187666	     -0.47701728	      1.82853504	      5.78300009	     -3.53736935	      0.00000000	      0.00000000	     28.23572413	     -6.55841041	      0.16727174	     13.49453694	    -26.72537752	     44.61615219	     98.11032100	     85.59385937	      5.23614140	      7.83723112	     29.61263348	    -31.87240439	     63.15129886	     93.90787463	     70.77375327	     10.57254865	     -6.82301532
      0.14000000	      4.43567960	     -4.02002612	     99.08092440	      0.27236951	      0.85322694	      0.52623460	     -4.10967314	      4.48691672	      2.73817221	      1.00810762	      0.01759480	     18.98946571	    -13.36141431	      0.00000000	     -0.54650173	     -5.65472973	     -6.01173544	      5.64261669	      0.09848224	     29.25763468	     11.74086411	      0.00000000	      0.26974315	      0.49337618	     -0.68970112	      0.50094000	      0.65619032	     -0.73280744	      0.44316102	      1.19959485	     -0.73280744	      0.30828944	      1.19959485	     -0.60348848	      0.25048349	      1.00609271	     -0.56038216	      0.15413123	      0.76423970	     -0.51727584	      1.92674833	      5.58117003	     -3.83591070	      0.00000000	      0.00000000	     28.24581056	     -6.18681240	      0.72342113	     14.47259969	    -26.84623846	     45.97643775	     97.97071772	     86.40701379	      4.37298018	      7.69049153	     29.27152911	    -32.09497842	     62.73395736	     93.66365991	     69.42887348	     13.26919927	     -6.83875835
      0.16000000	      4.35091506	     -4.08204707	     99.33115710	      0.27237718	      0.85308008	      0.52621681	     -4.13403789	      4.44011355	      1.95475407	      1.03188200	      0.01800974	     19.06574480	    -12.67002053	      0.00000000	     -0.37290257	     -5.60782345	     -6.67647443	      5.82535846	      0.10167169	     29.34519210	     12.72081783	      0.00000000	      0.27625286	      0.48431220	     -0.80985051	      0.51302918	      0.64413522	     -0.86046617	      0.45385582	      1.17755668	     -0.86046617	      0.31572939	      1.17755668	     -0.70861920	      0.25652840	      0.98760943	     -0.65800354	      0.15785088	      0.75019959	     -0.60738788	      1.97324653	      5.47863645	     -4.50414558	      0.00000000	      0.00000000	     28.25365245	     -5.94033189	      1.31435633	     15.62607702	    -26.96667500	     47.54780597	     97.72743998	     86.94830400	      3.49208215	      7.24209457	     28.82123401	    -32.43657429	     62.61176267	     93.60856001	     66.75910518	     14.61617816	     -6.94911668
      0.18000000	      4.25564752	     -4.14281066	     99.77364093	      0.27216365	      0.85299155	      0.52606121	     -4.16839901	      4.39936420	      0.90858352	      1.05852005	      0.01847466	     19.09221952	    -11.98954173	      0.00000000	     -0.25071359	     -5.48691369	     -5.87319003	      5.84087492	      0.10194250	     29.10713400	     12.13285889	      0.00000000	      0.28453499	      0.47415490	     -0.97448576	      0.52840992	      0.63062602	     -1.03539112	      0.46746253	      1.15286023	     -1.03539112	      0.32519504	      1.15286023	     -0.85267504	      0.26421919	      0.96689668	     -0.79176968	      0.16258329	      0.73446594	     -0.73086432	      2.03240496	      5.36373509	     -5.41979744	      0.00000000	      0.00000000	     28.26118256	     -5.66731320	      2.02325626	     16.69871195	    -26.96710571	     48.99108557	     97.49310053	     87.17972607	      2.98211288	      7.03979990	     28.11832950	    -32.80604124	     62.20690202	     93.72468286	     64.41577332	     15.44451808	     -6.91383873
